<svg width="14" height="17" viewBox="0 0 14 17" fill="none" xmlns="http://www.w3.org/2000/svg">
<path d="M7.07617 0.1875C5.42537 0.189491 3.84274 0.860651 2.67544 2.05375C1.50814 3.24686 0.851502 4.86448 0.849555 6.55179C0.847578 7.93065 1.28824 9.2721 2.10394 10.3704C2.10394 10.3704 2.27375 10.5989 2.30149 10.6319L7.07617 16.3875L11.8531 10.629C11.878 10.5983 12.0484 10.3704 12.0484 10.3704L12.049 10.3686C12.8643 9.27085 13.3047 7.93002 13.3028 6.55179C13.3008 4.86448 12.6442 3.24686 11.4769 2.05375C10.3096 0.860651 8.72698 0.189491 7.07617 0.1875V0.1875ZM7.07617 8.86607C6.62835 8.86607 6.19059 8.73034 5.81824 8.47604C5.44589 8.22175 5.15568 7.86031 4.9843 7.43742C4.81293 7.01454 4.76809 6.54922 4.85545 6.10029C4.94282 5.65136 5.15847 5.239 5.47512 4.91534C5.79178 4.59168 6.19523 4.37127 6.63444 4.28197C7.07366 4.19267 7.52892 4.2385 7.94265 4.41366C8.35639 4.58883 8.71001 4.88546 8.95881 5.26604C9.2076 5.64662 9.3404 6.09406 9.3404 6.55179C9.33965 7.16534 9.10086 7.75354 8.67639 8.18739C8.25193 8.62123 7.67645 8.86531 7.07617 8.86607V8.86607Z" fill="#999999"/>
</svg>
